<!DOCTYPE svg PUBLIC "-//W3C//DTD SVG 1.1//EN" "https://www.w3.org/Graphics/SVG/1.1/DTD/svg11.dtd"><svg xmlns="http://www.w3.org/2000/svg" class="sc-kMribo eeqqgh graph" data-testid="graph" role="img" aria-labelledby="polymath-graph-title" width="559" height="701"><title id="polymath-graph-title">Workflow Studio State Machine Graph</title><g transform="translate(12,12)" class="new-look-graph"><g class="nodes"><g class="node-container" transform="translate(260,22)"><g><circle class="sc-fvtFIe gWwGJf shape" r="22"/><text class="sc-iMWBiJ byMSYf label"><tspan xml:space="preserve" text-anchor="middle" alignment-baseline="central">Start</tspan></text></g></g><g class="node-container" transform="translate(260,103.5)"><g class="sc-tagGq gdmlYY node state Task" data-testid="graph-Update WES API" data-state-id="Update WES API" data-state-type="Task"><g class="new-look-state-node "><rect x="-120" y="-24.5" width="240" height="49" rx="3" ry="3"/><g class="handle" transform="translate(-120,-24.5)"><path d="M5,16 L5,34 M8,16 L8,34"/></g><g class="icon" transform="translate(-104,-24)"><rect fill="var(--color-background-container-header-etndi4, #fafafa)" x="0.0361026108" y="0.0181291967" width="48" height="48"/><line x1="47.5" y1="0.49122807" x2="47.5" y2="47.5" stroke="var(--color-board-placeholder-active-qurjro, #d5dbdb)" stroke-linecap="square"/><line x1="0.5" y1="0.49122807" x2="0.5" y2="47.5" stroke="var(--color-board-placeholder-active-qurjro, #d5dbdb)" stroke-linecap="square"/><use href="#icon-service-lam" aria-hidden="true"><title>Lambda</title></use></g><g class="text-lines" transform="translate(-48,-24.5)"><text transform="translate(0,17)" class="line1"><tspan xml:space="preserve" text-anchor="start">Lambda: Invoke</tspan></text><text transform="translate(0,35.5)" class="line2 label"><tspan xml:space="preserve" text-anchor="start">Update WES API</tspan></text></g></g></g></g><g class="node-container" transform="translate(260,187.5)"><g class="sc-tagGq gdmlYY node state Choice" data-testid="graph-Is Relevant Status" data-state-id="Is Relevant Status" data-state-type="Choice"><g class="new-look-state-node "><rect x="-120" y="-24.5" width="240" height="49" rx="3" ry="3"/><g class="handle" transform="translate(-120,-24.5)"><path d="M5,16 L5,34 M8,16 L8,34"/></g><g class="icon" transform="translate(-104,-24)"><rect fill="var(--color-background-container-header-etndi4, #fafafa)" x="0.0361026108" y="0.0181291967" width="48" height="48"/><line x1="47.5" y1="0.49122807" x2="47.5" y2="47.5" stroke="var(--color-board-placeholder-active-qurjro, #d5dbdb)" stroke-linecap="square"/><line x1="0.5" y1="0.49122807" x2="0.5" y2="47.5" stroke="var(--color-board-placeholder-active-qurjro, #d5dbdb)" stroke-linecap="square"/><use href="#icon-flow-choice"/></g><g class="text-lines" transform="translate(-48,-24.5)"><text transform="translate(0,17)" class="line1"><tspan xml:space="preserve" text-anchor="start">Choice state</tspan></text><text transform="translate(0,35.5)" class="line2 label"><tspan xml:space="preserve" text-anchor="start">Is Relevant Status</tspan></text></g></g></g></g><g class="node-container" transform="translate(120,288)"><g class="sc-tagGq gdmlYY node state Choice" data-testid="graph-Is Terminal Status" data-state-id="Is Terminal Status" data-state-type="Choice"><g class="new-look-state-node "><rect x="-120" y="-24.5" width="240" height="49" rx="3" ry="3"/><g class="handle" transform="translate(-120,-24.5)"><path d="M5,16 L5,34 M8,16 L8,34"/></g><g class="icon" transform="translate(-104,-24)"><rect fill="var(--color-background-container-header-etndi4, #fafafa)" x="0.0361026108" y="0.0181291967" width="48" height="48"/><line x1="47.5" y1="0.49122807" x2="47.5" y2="47.5" stroke="var(--color-board-placeholder-active-qurjro, #d5dbdb)" stroke-linecap="square"/><line x1="0.5" y1="0.49122807" x2="0.5" y2="47.5" stroke="var(--color-board-placeholder-active-qurjro, #d5dbdb)" stroke-linecap="square"/><use href="#icon-flow-choice"/></g><g class="text-lines" transform="translate(-48,-24.5)"><text transform="translate(0,17)" class="line1"><tspan xml:space="preserve" text-anchor="start">Choice state</tspan></text><text transform="translate(0,35.5)" class="line2 label"><tspan xml:space="preserve" text-anchor="start">Is Terminal Status</tspan></text></g></g></g></g><g class="node-container" transform="translate(415,573)"><g class="sc-tagGq gdmlYY node state Pass" data-testid="graph-Placeholder" data-state-id="Placeholder" data-state-type="Pass"><g class="new-look-state-node "><rect x="-120" y="-24.5" width="240" height="49" rx="3" ry="3"/><g class="handle" transform="translate(-120,-24.5)"><path d="M5,16 L5,34 M8,16 L8,34"/></g><g class="icon" transform="translate(-104,-24)"><rect fill="var(--color-background-container-header-etndi4, #fafafa)" x="0.0361026108" y="0.0181291967" width="48" height="48"/><line x1="47.5" y1="0.49122807" x2="47.5" y2="47.5" stroke="var(--color-board-placeholder-active-qurjro, #d5dbdb)" stroke-linecap="square"/><line x1="0.5" y1="0.49122807" x2="0.5" y2="47.5" stroke="var(--color-board-placeholder-active-qurjro, #d5dbdb)" stroke-linecap="square"/><use href="#icon-flow-pass"/></g><g class="text-lines" transform="translate(-48,-24.5)"><text transform="translate(0,17)" class="line1"><tspan xml:space="preserve" text-anchor="start">Pass state</tspan></text><text transform="translate(0,35.5)" class="line2 label"><tspan xml:space="preserve" text-anchor="start">Placeholder</tspan></text></g></g></g></g><g class="node-container" transform="translate(197.5,388.5)"><g class="sc-tagGq gdmlYY node state Task" data-testid="graph-Get Logs Dir" data-state-id="Get Logs Dir" data-state-type="Task"><g class="new-look-state-node "><rect x="-120" y="-24.5" width="240" height="49" rx="3" ry="3"/><g class="handle" transform="translate(-120,-24.5)"><path d="M5,16 L5,34 M8,16 L8,34"/></g><g class="icon" transform="translate(-104,-24)"><rect fill="var(--color-background-container-header-etndi4, #fafafa)" x="0.0361026108" y="0.0181291967" width="48" height="48"/><line x1="47.5" y1="0.49122807" x2="47.5" y2="47.5" stroke="var(--color-board-placeholder-active-qurjro, #d5dbdb)" stroke-linecap="square"/><line x1="0.5" y1="0.49122807" x2="0.5" y2="47.5" stroke="var(--color-board-placeholder-active-qurjro, #d5dbdb)" stroke-linecap="square"/><use href="#icon-service-lam" aria-hidden="true"><title>Lambda</title></use></g><g class="text-lines" transform="translate(-48,-24.5)"><text transform="translate(0,17)" class="line1"><tspan xml:space="preserve" text-anchor="start">Lambda: Invoke</tspan></text><text transform="translate(0,35.5)" class="line2 label"><tspan xml:space="preserve" text-anchor="start">Get Logs Dir</tspan></text></g></g></g></g><g class="node-container" transform="translate(120,573)"><g class="sc-tagGq gdmlYY node state Task" data-testid="graph-Put State Change Event" data-state-id="Put State Change Event" data-state-type="Task"><g class="new-look-state-node "><rect x="-120" y="-24.5" width="240" height="49" rx="3" ry="3"/><g class="handle" transform="translate(-120,-24.5)"><path d="M5,16 L5,34 M8,16 L8,34"/></g><g class="icon" transform="translate(-104,-24)"><rect fill="var(--color-background-container-header-etndi4, #fafafa)" x="0.0361026108" y="0.0181291967" width="48" height="48"/><line x1="47.5" y1="0.49122807" x2="47.5" y2="47.5" stroke="var(--color-board-placeholder-active-qurjro, #d5dbdb)" stroke-linecap="square"/><line x1="0.5" y1="0.49122807" x2="0.5" y2="47.5" stroke="var(--color-board-placeholder-active-qurjro, #d5dbdb)" stroke-linecap="square"/><use href="#icon-service-events" aria-hidden="true"><title>Amazon EventBridge</title></use></g><g class="text-lines" transform="translate(-48,-24.5)"><text transform="translate(0,17)" class="line1"><tspan xml:space="preserve" text-anchor="start">EventBridge: PutEvents</tspan></text><text transform="translate(0,35.5)" class="line2 label"><tspan xml:space="preserve" text-anchor="start">Put State Change Event</tspan></text></g></g></g></g><g class="node-container" transform="translate(197.5,489)"><g class="sc-tagGq gdmlYY node state Task" data-testid="graph-Move logs dir" data-state-id="Move logs dir" data-state-type="Task"><g class="new-look-state-node "><rect x="-120" y="-24.5" width="240" height="49" rx="3" ry="3"/><g class="handle" transform="translate(-120,-24.5)"><path d="M5,16 L5,34 M8,16 L8,34"/></g><g class="icon" transform="translate(-104,-24)"><rect fill="var(--color-background-container-header-etndi4, #fafafa)" x="0.0361026108" y="0.0181291967" width="48" height="48"/><line x1="47.5" y1="0.49122807" x2="47.5" y2="47.5" stroke="var(--color-board-placeholder-active-qurjro, #d5dbdb)" stroke-linecap="square"/><line x1="0.5" y1="0.49122807" x2="0.5" y2="47.5" stroke="var(--color-board-placeholder-active-qurjro, #d5dbdb)" stroke-linecap="square"/><use href="#icon-service-events" aria-hidden="true"><title>Amazon EventBridge</title></use></g><g class="text-lines" transform="translate(-48,-24.5)"><text transform="translate(0,17)" class="line1"><tspan xml:space="preserve" text-anchor="start">EventBridge: PutEvents</tspan></text><text transform="translate(0,35.5)" class="line2 label"><tspan xml:space="preserve" text-anchor="start">Move logs dir</tspan></text></g></g></g></g><g class="node-container" transform="translate(260,654.5)"><g><circle class="sc-fvtFIe gWwGJf shape" r="22"/><text class="sc-iMWBiJ byMSYf label"><tspan xml:space="preserve" text-anchor="middle" alignment-baseline="central">End</tspan></text></g></g></g><g class="edges"><g class="sc-esYiGF kuATdi edge"><path id="state-Update WES API:state-Is Relevant Status:normal" d="M260,128L260,130.91666666666666C260,133.83333333333334,260,139.66666666666666,260,145.5C260,151.33333333333334,260,157.16666666666666,260,160.08333333333334L260,163" marker-end="url(#arrowhead)" fill="none"/></g><g class="sc-esYiGF kuATdi edge"><path id="start:state-Update WES API" d="M260,44L260,46.916666666666664C260,49.833333333333336,260,55.666666666666664,260,61.5C260,67.33333333333333,260,73.16666666666667,260,76.08333333333333L260,79" marker-end="url(#arrowhead)" fill="none"/></g><g class="sc-esYiGF kuATdi edge"><path id="state-Is Relevant Status:state-Is Terminal Status:choiceRule:0" d="M191.74129353233832,212L179.7844112769486,216.29166666666666C167.8275290215589,220.58333333333334,143.91376451077943,229.16666666666666,131.95688225538973,237.75C120,246.33333333333334,120,254.91666666666666,120,259.2083333333333L120,263.5" marker-end="url(#arrowhead)" fill="none"/><g data-testid="graph-Is Relevant Status-0" class="edge-label" transform="translate(131.95688225538973,237.75)"><rect x="-22" y="-8.25" width="44" height="16.5" class="sc-fXSgeo cSosFk"/><text class="sc-JrDLc dtRIIC label"><tspan xml:space="preserve" text-anchor="middle" alignment-baseline="central">Rule #1</tspan><title>Rule #1</title></text></g></g><g class="sc-esYiGF kuATdi edge"><path id="state-Is Relevant Status:state-Placeholder:choiceDefault" d="M335.5721393034826,212L348.8101160862355,216.29166666666666C362.04809286898836,220.58333333333334,388.5240464344942,229.16666666666666,401.76202321724713,241.83333333333334C415,254.5,415,271.25,415,288C415,304.75,415,321.5,415,338.25C415,355,415,371.75,415,388.5C415,405.25,415,422,415,438.75C415,455.5,415,472.25,415,487.625C415,503,415,517,415,526.9166666666666C415,536.8333333333334,415,542.6666666666666,415,545.5833333333334L415,548.5" marker-end="url(#arrowhead)" fill="none"/><g data-testid="graph-Is Relevant Status-Default" class="edge-label" transform="translate(401.76202321724713,241.83333333333334)"><rect x="-22" y="-8.25" width="44" height="16.5" class="sc-fXSgeo cSosFk"/><text class="sc-JrDLc dtRIIC label"><tspan xml:space="preserve" text-anchor="middle" alignment-baseline="central">Default</tspan><title>Default</title></text></g></g><g class="sc-esYiGF kuATdi edge"><path id="state-Is Terminal Status:state-Get Logs Dir:choiceRule:0" d="M157.7860696517413,312.5L164.40505804311775,316.7916666666667C171.02404643449418,321.0833333333333,184.2620232172471,329.6666666666667,190.88101160862357,338.25C197.5,346.8333333333333,197.5,355.4166666666667,197.5,359.7083333333333L197.5,364" marker-end="url(#arrowhead)" fill="none"/><g data-testid="graph-Is Terminal Status-0" class="edge-label" transform="translate(190.88101160862357,338.25)"><rect x="-22" y="-8.25" width="44" height="16.5" class="sc-fXSgeo cSosFk"/><text class="sc-JrDLc dtRIIC label"><tspan xml:space="preserve" text-anchor="middle" alignment-baseline="central">Rule #1</tspan><title>Rule #1</title></text></g></g><g class="sc-esYiGF kuATdi edge"><path id="state-Is Terminal Status:state-Put State Change Event:choiceDefault" d="M82.21393034825871,312.5L75.59494195688227,316.7916666666667C68.9759535655058,321.0833333333333,55.7379767827529,329.6666666666667,49.118988391376455,342.3333333333333C42.5,355,42.5,371.75,42.5,388.5C42.5,405.25,42.5,422,42.5,438.75C42.5,455.5,42.5,472.25,42.5,487.625C42.5,503,42.5,517,47.881944444444436,526.9166666666666C53.263888888888886,536.8333333333334,64.02777777777777,542.6666666666666,69.40972222222221,545.5833333333334L74.79166666666666,548.5" marker-end="url(#arrowhead)" fill="none"/><g data-testid="graph-Is Terminal Status-Default" class="edge-label" transform="translate(49.118988391376455,342.3333333333333)"><rect x="-22" y="-8.25" width="44" height="16.5" class="sc-fXSgeo cSosFk"/><text class="sc-JrDLc dtRIIC label"><tspan xml:space="preserve" text-anchor="middle" alignment-baseline="central">Default</tspan><title>Default</title></text></g></g><g class="sc-esYiGF kuATdi edge"><path id="state-Get Logs Dir:state-Move logs dir:normal" d="M197.5,413L197.5,417.2916666666667C197.5,421.5833333333333,197.5,430.1666666666667,197.5,438.75C197.5,447.3333333333333,197.5,455.9166666666667,197.5,460.2083333333333L197.5,464.5" marker-end="url(#arrowhead)" fill="none"/></g><g class="sc-esYiGF kuATdi edge"><path id="state-Move logs dir:state-Put State Change Event:normal" d="M197.5,513.5L197.5,516.4166666666666C197.5,519.3333333333334,197.5,525.1666666666666,192.11805555555554,531C186.73611111111111,536.8333333333334,175.97222222222226,542.6666666666666,170.5902777777778,545.5833333333334L165.20833333333334,548.5" marker-end="url(#arrowhead)" fill="none"/></g><g class="sc-esYiGF kuATdi edge"><path id="state-Put State Change Event:end:normal" d="M120,597.5L120,600.4166666666666C120,603.3333333333334,120,609.1666666666666,139.8044356314808,617.6710133865012C159.60887126296163,626.1753601063356,199.21774252592323,637.3507202126713,219.02217815740403,642.938400265839L238.82661378888483,648.5260803190068" marker-end="url(#arrowhead)" fill="none"/></g><g class="sc-esYiGF kuATdi edge"><path id="state-Placeholder:end:normal" d="M415,597.5L415,600.4166666666666C415,603.3333333333334,415,609.1666666666666,392.7197737476693,617.7611974427982C370.43954749533873,626.3557282189298,325.87909499067746,637.7114564378596,303.5988687383468,643.3893205473245L281.3186424860162,649.0671846567894" marker-end="url(#arrowhead)" fill="none"/></g></g><defs><marker id="arrowhead" markerWidth="8" markerHeight="6" refX="7" refY="3" orient="auto" class="sc-brPLxw bnHybh"><polygon points="0 0, 8 3, 0 6"/></marker><marker id="highlighted-arrowhead" markerWidth="6" markerHeight="4" refX="5" refY="2" orient="auto" class="sc-brPLxw bnHybh"><polygon points="0 0, 6 2, 0 4"/></marker><marker id="error-arrowhead" markerWidth="6" markerHeight="4" refX="5" refY="2" orient="auto" class="sc-brPLxw bnHybh"><polygon points="0 0, 6 2, 0 4"/></marker><marker id="large-arrowhead" markerWidth="10" markerHeight="8" refX="9" refY="4" orient="auto" class="sc-brPLxw bnHybh"><polygon points="0 0, 10 4, 0 8"/></marker><marker id="large-highlighted-arrowhead" markerWidth="5.5" markerHeight="4" refX="4.5" refY="2" orient="auto" class="sc-brPLxw bnHybh"><polygon points="0 0, 5.5 2, 0 4"/></marker><marker id="large-error-arrowhead" markerWidth="10" markerHeight="8" refX="9" refY="4" orient="auto" class="sc-brPLxw bnHybh"><polygon points="0 0, 10 4, 0 8"/></marker><linearGradient x1="0%" y1="100%" x2="100%" y2="0%" id="gradient-orange"><stop stop-color="#C8511B" offset="0%"/><stop stop-color="#FF9900" offset="100%"/></linearGradient><linearGradient x1="0%" y1="100%" x2="100%" y2="0%" id="gradient-turquoise"><stop stop-color="#055F4E" offset="0%"/><stop stop-color="#56C0A7" offset="100%"/></linearGradient><linearGradient x1="0%" y1="100%" x2="100%" y2="0%" id="gradient-blue"><stop stop-color="#2E27AD" offset="0%"/><stop stop-color="#527FFF" offset="100%"/></linearGradient><linearGradient x1="0%" y1="100%" x2="100%" y2="0%" id="gradient-pink"><stop stop-color="#B0084D" offset="0%"/><stop stop-color="#FF4F8B" offset="100%"/></linearGradient><linearGradient x1="0%" y1="100%" x2="100%" y2="0%" id="gradient-red"><stop stop-color="#BD0816" offset="0%"/><stop stop-color="#FF5252" offset="100%"/></linearGradient><linearGradient x1="0%" y1="100%" x2="100%" y2="0%" id="gradient-green"><stop stop-color="#1B660F" offset="0%"/><stop stop-color="#6CAE3E" offset="100%"/></linearGradient><linearGradient x1="0%" y1="100%" x2="100%" y2="0%" id="gradient-purple"><stop stop-color="#4D27A8" offset="0%"/><stop stop-color="#A166FF" offset="100%"/></linearGradient><linearGradient x1="0%" y1="100%" x2="100%" y2="0%" id="gradient-grey"><stop stop-color="#DCDCDC" offset="0%"/><stop stop-color="#F6F5F7" offset="100%"/></linearGradient><linearGradient x1="0%" y1="100%" x2="100%" y2="0%" id="gradient-light-pink"><stop stop-color="#DD344C" offset="0%"/><stop stop-color="#DD344C" offset="100%"/></linearGradient>,<linearGradient x1="0%" y1="100%" x2="100%" y2="0%" id="gradient-ag"><stop stop-color="#BC1356" offset="0%"/><stop stop-color="#F34482" offset="100%"/></linearGradient><linearGradient x1="0%" y1="100%" x2="100%" y2="0%" id="gradient-athena"><stop stop-color="#5930B5" offset="0%"/><stop stop-color="#945DF2" offset="100%"/></linearGradient><linearGradient x1="0%" y1="100%" x2="100%" y2="0%" id="gradient-emr"><stop stop-color="#5930B5" offset="0%"/><stop stop-color="#945DF2" offset="100%"/></linearGradient><linearGradient x1="0%" y1="100%" x2="100%" y2="0%" id="gradient-glue"><stop stop-color="#5930B5" offset="0%"/><stop stop-color="#945DF2" offset="100%"/></linearGradient><linearGradient x1="0%" y1="100%" x2="100%" y2="0%" id="gradient-sns"><stop stop-color="#BC1356" offset="0%"/><stop stop-color="#F34482" offset="100%"/></linearGradient><linearGradient x1="0%" y1="100%" x2="100%" y2="0%" id="gradient-states"><stop stop-color="#BC1356" offset="0%"/><stop stop-color="#F34482" offset="100%"/></linearGradient><linearGradient x1="0%" y1="100%" x2="100%" y2="0%" id="gradient-generic"><stop stop-color="#ccc" offset="0%"/><stop stop-color="#ddd" offset="100%"/></linearGradient><g stroke="none" stroke-width="1" fill="none" fill-rule="evenodd" id="icon-flow-pass"><g transform="translate(10.500000, 8.750000)" fill="#0073BB" fill-rule="nonzero"><path d="M13.8217363,31.2803301 L13.7368454,31.3532508 L13.7368454,31.3532508 L13.6534426,31.407053 L13.6534426,31.407053 L13.6052878,31.4313839 L13.6052878,31.4313839 L13.5081671,31.4681458 L13.5081671,31.4681458 L13.4513711,31.4828395 L13.4513711,31.4828395 L13.3846755,31.4942127 L13.3846755,31.4942127 L13.3412428,31.498357 L13.3412428,31.498357 L13.241495,31.498357 L13.241495,31.498357 L13.1802045,31.4917588 L13.1802045,31.4917588 L13.1314644,31.4828361 L13.1314644,31.4828361 L13.0652921,31.4652652 L12.9776235,31.4314294 L12.9776235,31.4314294 L12.9293782,31.4070608 L12.9293782,31.4070608 L12.8294824,31.3409596 L12.7610762,31.2803301 L12.7610762,31.2803301 L8.26107616,26.7803301 C7.96818295,26.4874369 7.96818295,26.0125631 8.26107616,25.7196699 C8.52734273,25.4534034 8.94400641,25.4291973 9.2376179,25.6470518 L9.32173634,25.7196699 L12.5814063,28.979 L12.581,19.7495522 L3.5,19.75 C1.6314366,19.75 0.104873551,18.2857224 0.00517886273,16.4420352 L0,16.25 L0,12.25 C0,10.3814366 1.4642776,8.85487355 3.3079648,8.75517886 L3.5,8.75 L11.686,8.74955216 L11.686,10.2495522 L3.5,10.25 C2.4456382,10.25 1.58183488,11.0658778 1.50548574,12.1007377 L1.5,12.25 L1.5,16.25 C1.5,17.3043618 2.31587779,18.1681651 3.35073766,18.2445143 L3.5,18.25 L22.5,18.25 C23.5543618,18.25 24.4181651,17.4341222 24.4945143,16.3992623 L24.5,16.25 L24.5,12.25 C24.5,11.1956382 23.6841222,10.3318349 22.6492623,10.2554857 L22.5,10.25 L15.686,10.2495522 L15.686,8.74955216 L22.5,8.75 C24.3685634,8.75 25.8951264,10.2142776 25.9948211,12.0579648 L26,12.25 L26,16.25 C26,18.1185634 24.5357224,19.6451264 22.6920352,19.7448211 L22.5,19.75 L14.081,19.7495522 L14.0814063,28.899 L17.2610762,25.7196699 L17.3451946,25.6470518 C17.6388061,25.4291973 18.0554698,25.4534034 18.3217363,25.7196699 C18.5880029,25.9859365 18.6122089,26.4026002 18.3943545,26.6962117 L18.3217363,26.7803301 L13.8217363,31.2803301 Z" fill="false"/><polygon points="14.0818291 0 14.0818291 14.5 12.5818291 14.5 12.5818291 0" fill="false"/></g></g><g stroke="none" stroke-width="1" fill="none" fill-rule="evenodd" id="icon-flow-choice"><g transform="translate(9.252020, 8.729185)" fill="#0073BB" fill-rule="nonzero"><path d="M13.7176503,0.219669914 C13.9839168,-0.0465966484 14.4005805,-0.0708026996 14.694192,0.147051761 L14.7783104,0.219669914 L26.7991257,12.2404852 C27.0653923,12.5067518 27.0895983,12.9234154 26.8717439,13.2170269 L26.7991257,13.3011454 L19.848,20.251 L27.063,27.58 L27.0635443,24.4725437 C27.0635443,24.0583302 27.3993308,23.7225437 27.8135443,23.7225437 C28.1901021,23.7225437 28.5018441,24.0000532 28.5554124,24.3617142 L28.5635443,24.4725437 L28.5635443,29.4222912 C28.5635443,29.4735748 28.5583971,29.5236562 28.5485912,29.5720469 L28.5290567,29.6477745 L28.4912259,29.7440224 L28.4674556,29.7898473 L28.4399848,29.8348433 L28.3922808,29.8993609 L28.3266417,29.9693147 L28.2903734,30.0012261 L28.2103598,30.0588356 L28.1372883,30.0990133 L28.0408973,30.1372113 L27.9243738,30.1641593 C27.8841362,30.1698129 27.8491297,30.1722912 27.8135443,30.1722912 L22.8637969,30.1722912 C22.4495833,30.1722912 22.1137969,29.8365048 22.1137969,29.4222912 C22.1137969,29.0457334 22.3913063,28.7339914 22.7529674,28.6804231 L22.8637969,28.6722912 L26.032,28.672 L18.787,21.312 L14.7783104,25.3219606 C14.5120439,25.5882272 14.0953802,25.6124333 13.8017687,25.3945788 L13.7176503,25.3219606 L9.63,21.234 L2.386,28.671 L5.69974747,28.6722912 L5.81057697,28.6804231 C6.17223802,28.7339914 6.44974747,29.0457334 6.44974747,29.4222912 C6.44974747,29.801987 6.16759359,30.1157822 5.80151803,30.1654446 L5.69974747,30.1722912 L0.75,30.1722912 L0.645175107,30.1650238 L0.571316134,30.150876 L0.491748953,30.1266437 L0.399838514,30.0857012 L0.323957521,30.0396165 L0.243169757,29.975129 L0.170912131,29.8989347 L0.109961584,29.8134582 L0.0656949991,29.7297074 L0.0297396696,29.6320944 L0.0076057584,29.5294944 L6.67910172e-13,29.4222912 L6.67910172e-13,24.4725437 L0.00813192572,24.3617142 C0.0617002376,24.0000532 0.373442216,23.7225437 0.75,23.7225437 C1.12969577,23.7225437 1.44349096,24.0046976 1.49315338,24.3707732 L1.5,24.4725437 L1.499,27.433 L8.569,20.174 L1.69683498,13.3011454 C1.43056842,13.0348788 1.40636237,12.6182151 1.62421683,12.3246036 L1.69683498,12.2404852 L13.7176503,0.219669914 Z M14.3527697,23.728356 L25.2081355,12.7708153 L14.2479803,1.81066017 L3.28782524,12.7708153 L9.616,19.099 L14.3527697,23.728356 Z" fill="false"/><path d="M15.2319803,14.0468153 L15.2319803,13.2668153 C16.0033137,12.8508153 16.5579803,12.4218153 16.8959803,11.9798153 C17.2339803,11.5378153 17.4029803,11.0178153 17.4029803,10.4198153 C17.4029803,9.65714861 17.151647,9.06131528 16.6489803,8.63231528 C16.1463137,8.20331528 15.448647,7.98881528 14.5559803,7.98881528 C13.6979803,7.98881528 12.874647,8.19248195 12.0859803,8.59981528 L12.0859803,8.59981528 L12.0859803,10.3288153 C12.8313137,9.98214861 13.4943137,9.80881528 14.0749803,9.80881528 C14.395647,9.80881528 14.6404803,9.87814861 14.8094803,10.0168153 C14.9784803,10.1554819 15.0629803,10.3591486 15.0629803,10.6278153 C15.0629803,10.9138153 14.9763137,11.1651486 14.8029803,11.3818153 C14.629647,11.5984819 14.343647,11.8151486 13.9449803,12.0318153 L13.9449803,12.0318153 L13.1909803,12.4348153 L13.3339803,14.0468153 L15.2319803,14.0468153 Z M14.3089803,17.4398153 C14.7249803,17.4398153 15.0608137,17.3141486 15.3164803,17.0628153 C15.572147,16.8114819 15.6999803,16.4821486 15.6999803,16.0748153 C15.6999803,15.6674819 15.572147,15.3381486 15.3164803,15.0868153 C15.0608137,14.8354819 14.7249803,14.7098153 14.3089803,14.7098153 C13.8929803,14.7098153 13.557147,14.8354819 13.3014803,15.0868153 C13.0458137,15.3381486 12.9179803,15.6674819 12.9179803,16.0748153 C12.9179803,16.4821486 13.0458137,16.8114819 13.3014803,17.0628153 C13.557147,17.3141486 13.8929803,17.4398153 14.3089803,17.4398153 Z" fill="false"/></g></g><g stroke="none" stroke-width="1" fill="none" fill-rule="evenodd" id="icon-service-lam"><polygon fill="url(#gradient-orange)" fill-rule="nonzero" points="0 0 48 0 48 48 0 48"/><g transform="translate(11, 10)" fill="#FFFFFF"><path d="M26.5889213,27.8937088 L19.6925948,27.8937088 C19.4772752,27.8931074 19.2813916,27.7706914 19.1888047,27.578869 L9.43766764,7.45673404 L5.31218659,7.45673404 C5.00303594,7.45673404 4.75241983,7.20943823 4.75241983,6.90438337 L4.75241983,0.828526005 C4.75241983,0.523471153 5.00303594,0.276175335 5.31218659,0.276175335 L13.9325948,0.276175335 C14.1479143,0.276776788 14.3437979,0.399192787 14.4363848,0.591015217 L24.1427405,20.7131501 L26.5889213,20.7131501 C26.8980719,20.7131501 27.148688,20.9604459 27.148688,21.2655008 L27.148688,27.3413582 C27.148688,27.646413 26.8980719,27.8937088 26.5889213,27.8937088 Z M20.0452478,26.7890075 L26.0291545,26.7890075 L26.0291545,21.8178515 L23.7900875,21.8178515 C23.5747679,21.81725 23.3788843,21.694834 23.2862974,21.5030116 L13.5799417,1.38087667 L5.87755102,1.38087667 L5.87755102,6.3520327 L9.79591837,6.3520327 C10.0112379,6.35263416 10.2071215,6.47505016 10.2997085,6.66687259 L20.0452478,26.7890075 Z"/><path d="M8.10542274,27.8937099 L0.82845481,27.8937099 C0.635054571,27.8940907 0.455155006,27.7959347 0.352653061,27.634104 C0.243858391,27.4681848 0.233185428,27.2575536 0.324664723,27.0817533 L7.93749271,11.3894708 C8.03007964,11.1976484 8.22596323,11.0752324 8.4412828,11.0746298 L8.4412828,11.0746298 C8.65533487,11.0742082 8.85089022,11.1942751 8.94507289,11.3839473 L12.5891545,18.7799228 C12.6634688,18.931712 12.6634688,19.1086786 12.5891545,19.2604679 L8.6148105,27.5457279 C8.53147526,27.7523199 8.33072312,27.8894609 8.10542274,27.8937099 L8.10542274,27.8937099 Z M1.72408163,26.7890075 L7.75276968,26.7890075 L11.4640233,19.0560981 L8.44688047,12.8973881 L1.72408163,26.7890075 Z"/></g></g><g stroke="none" stroke-width="1" fill="none" fill-rule="evenodd" id="icon-service-events"><g fill="url(#gradient-pink)" fill-rule="nonzero"><rect x="0" y="0" width="48" height="48"/></g><path d="M31.2584891,38.2790698 C30.1297571,38.2790698 29.2116636,37.367814 29.2116636,36.2474884 C29.2116636,35.1271628 30.1297571,34.215907 31.2584891,34.215907 C32.3872211,34.215907 33.3053146,35.1271628 33.3053146,36.2474884 C33.3053146,37.367814 32.3872211,38.2790698 31.2584891,38.2790698 L31.2584891,38.2790698 Z M26.4152555,28.9069767 L20.5442511,28.9069767 L17.6083857,23.8604651 L20.5442511,18.8139535 L26.4152555,18.8139535 L29.3511208,23.8604651 L26.4152555,28.9069767 Z M16.4680323,13.5050233 C15.3393003,13.5050233 14.4204804,12.5937674 14.4204804,11.4734419 C14.4204804,10.3531163 15.3393003,9.44186047 16.4680323,9.44186047 C17.5960379,9.44186047 18.5148577,10.3531163 18.5148577,11.4734419 C18.5148577,12.5937674 17.5960379,13.5050233 16.4680323,13.5050233 L16.4680323,13.5050233 Z M31.2584891,32.7740465 C30.8677183,32.7740465 30.4980114,32.8526279 30.1464629,32.9701395 L27.9093364,29.2227442 L30.8190535,24.2209302 C30.948342,23.9974419 30.948342,23.7234884 30.8190535,23.5 L27.4633638,17.7325581 C27.3340753,17.5090698 27.0943832,17.372093 26.8343535,17.372093 L20.8333343,17.372093 L18.8315419,14.0190465 C19.5251964,13.383907 19.9675373,12.4820233 19.9675373,11.4734419 C19.9675373,9.55865116 18.397917,8 16.4680323,8 C14.5374211,8 12.9678009,9.55865116 12.9678009,11.4734419 C12.9678009,13.3889535 14.5374211,14.9468837 16.4680323,14.9468837 C16.8588031,14.9468837 17.22851,14.8683023 17.5800585,14.7507907 L19.4293195,17.847186 L16.1411794,23.5 C16.0111645,23.7234884 16.0111645,23.9974419 16.1411794,24.2209302 L19.4961428,29.9883721 C19.6254313,30.2118605 19.8651234,30.3488372 20.125153,30.3488372 L26.8343535,30.3488372 C26.8532384,30.3488372 26.8706705,30.3430698 26.8881027,30.3416279 L28.8949795,33.7018837 C28.201325,34.3370233 27.7589841,35.238907 27.7589841,36.2474884 C27.7589841,38.1622791 29.3286043,39.7209302 31.2584891,39.7209302 C33.1883739,39.7209302 34.7579941,38.1622791 34.7579941,36.2474884 C34.7579941,34.3319767 33.1883739,32.7740465 31.2584891,32.7740465 L31.2584891,32.7740465 Z M34.6265266,19.2724651 C33.4977946,19.2724651 32.5789748,18.3612093 32.5789748,17.2408837 C32.5789748,16.1205581 33.4977946,15.2093023 34.6265266,15.2093023 C35.7545323,15.2093023 36.6733521,16.1205581 36.6733521,17.2408837 C36.6733521,18.3612093 35.7545323,19.2724651 34.6265266,19.2724651 L34.6265266,19.2724651 Z M36.8222518,19.9234651 C37.6110568,19.2861628 38.1260317,18.3273256 38.1260317,17.2408837 C38.1260317,15.326093 36.5564114,13.7674419 34.6265266,13.7674419 C34.1667536,13.7674419 33.7302233,13.8611628 33.3285575,14.0219302 L31.3616293,11.1951628 C31.2250775,11.0005116 31.0013648,10.8837209 30.7631254,10.8837209 L24.2260674,10.8837209 L24.2260674,12.3255814 L30.3825233,12.3255814 L32.1206544,14.8243256 C31.50835,15.450093 31.1262953,16.3015116 31.1262953,17.2408837 C31.1262953,19.1563953 32.6959155,20.7143256 34.6265266,20.7143256 C34.9395791,20.7143256 35.2381047,20.6602558 35.5279143,20.5831163 L37.4352825,23.8604651 L34.6606646,28.6301395 L35.9186851,29.3510698 L38.9024889,24.2209302 C39.0325037,23.9974419 39.0325037,23.7234884 38.9024889,23.5 L36.8222518,19.9234651 Z M12.8363334,32.2492093 C11.7076014,32.2492093 10.7887816,31.3379535 10.7887816,30.2176279 C10.7887816,29.0973023 11.7076014,28.1860465 12.8363334,28.1860465 C13.9643391,28.1860465 14.8831589,29.0973023 14.8831589,30.2176279 C14.8831589,31.3379535 13.9643391,32.2492093 12.8363334,32.2492093 L12.8363334,32.2492093 Z M14.936908,32.9780698 C15.7809148,32.3436512 16.3358384,31.3480465 16.3358384,30.2176279 C16.3358384,28.3028372 14.7662182,26.744186 12.8363334,26.744186 C12.3308009,26.744186 11.8528693,26.8559302 11.4192445,27.0476977 L9.56489904,23.8604651 L12.7891213,18.3172326 L11.5311008,17.5963023 L8.09696636,23.5 C7.96767788,23.7234884 7.96767788,23.9974419 8.09696636,24.2209302 L10.2411214,27.9077674 C9.68547145,28.5234419 9.33610202,29.3272791 9.33610202,30.2176279 C9.33610202,32.1331395 10.9057223,33.6910698 12.8363334,33.6910698 C13.1014474,33.6910698 13.357119,33.6564651 13.6048009,33.6009535 L15.6385522,36.5257674 C15.7743778,36.7204186 15.9973641,36.8372093 16.2363299,36.8372093 L22.7733878,36.8372093 L22.7733878,35.3953488 L16.6183846,35.3953488 L14.936908,32.9780698 Z" fill="#FFFFFF"/></g></defs></g><style data-styled="true" data-styled-version="5.3.11">.gdmlYY{cursor:pointer;}/*!sc*/
data-styled.g48[id="sc-tagGq"]{content:"gdmlYY,"}/*!sc*/
.kuATdi{stroke:#555;background-color:#555;stroke-width:1px;}/*!sc*/
data-styled.g49[id="sc-esYiGF"]{content:"kuATdi,"}/*!sc*/
.cSosFk{stroke-width:0;stroke:none;fill:#f2f3f3;}/*!sc*/
data-styled.g50[id="sc-fXSgeo"]{content:"cSosFk,"}/*!sc*/
.dtRIIC{font-size:10px;line-height:12.5;stroke:none;}/*!sc*/
data-styled.g51[id="sc-JrDLc"]{content:"dtRIIC,"}/*!sc*/
.bnHybh{fill:var(--color-text-form-secondary-btuye6,#687078);}/*!sc*/
data-styled.g77[id="sc-brPLxw"]{content:"bnHybh,"}/*!sc*/
.byMSYf{font-weight:400;font-size:12px;line-height:16px;font-family:Amazon Ember,Arial,Roboto,Arial,sans-serif;text-shadow:none;fill:var(--color-text-button-primary-default-qh066v,#16191f);}/*!sc*/
data-styled.g78[id="sc-iMWBiJ"]{content:"byMSYf,"}/*!sc*/
.gWwGJf{fill:#fff9cc;stroke:var(--color-text-form-secondary-btuye6,#687078);stroke-width:0.6px;}/*!sc*/
data-styled.g79[id="sc-fvtFIe"]{content:"gWwGJf,"}/*!sc*/
</style><style>
.new-look-state-node &gt; rect:first-of-type {
  stroke: #687078;
  stroke-width: 1px;
  fill: #FFFFFF;
}

.new-look-state-node .error-icon circle {
 stroke-linejoin: round;
}

.new-look-state-node .error-icon circle, .new-look-state-node .error-icon path {
 stroke: var(--color-border-status-error-si9bvu, #d13212);
 fill: none;
 stroke-width: 2px;
}

.new-look-state-node.has-errors &gt; rect:first-of-type {
 stroke: var(--color-border-status-error-si9bvu, #d13212);
 fill: var(--color-background-status-error-qqw3y6, #fdf3f1);
}

.new-look-state-node.has-errors &gt; .bounding-box &gt; .new-look-state-node-sub &gt; rect {
  stroke: var(--color-border-status-error-si9bvu, #d13212);
  fill: var(--color-background-status-error-qqw3y6, #fdf3f1);
}

.new-look-state-node .handle path {
  stroke: var(--color-border-dropdown-item-hover-t6obhh, #879596);
  stroke-width: 1px;
  fill: none;
}

.new-look-state-node {
  font-weight: 400;
  font-family: Amazon Ember, Arial, Roboto, Arial, sans-serif;
  text-shadow: none;
}

.new-look-state-node .line1 {
  fill: #687078;
  font-size: 12px;
}

.new-look-state-node .line2 {
  fill: #16191f;
}

.selected.node &gt; .new-look-state-node &gt; rect,
.selected.node &gt; .new-look-state-node &gt; .new-look-state-node &gt; rect,
.selected.node &gt; .new-look-state-node &gt; .bounding-box &gt; rect,
.selected.node &gt; .new-look-state-node.has-errors &gt; rect,
.selected.node &gt; .new-look-state-node.has-errors &gt; .bounding-box &gt; rect,
.selected.node &gt; .new-look-state-node.has-errors &gt; .new-look-state-node &gt; rect,
.selected.node &gt; .new-look-state-node &gt; .bounding-box &gt; .new-look-state-node-sub &gt; rect
 {
  stroke: var(--color-border-status-info-fjyzd6, #0073bb);
  fill: var(--color-background-status-info-60ssq8, #f1faff);
  stroke-width: 1px;
}

.new-look-state-node-sub .item-source.not-specified {
  height: 15px;
  color: #687078;
  font-family: "Amazon Ember";
  font-size: 12px;
  letter-spacing: 0;
  line-height: 16px;
  font-weight: 400;
}
.new-look-state-node-sub .item-source .item-source_name{
  font-weight: 600;
}
.new-look-state-node-sub .item-source.not-specified .item-source_name{
  font-weight: 400;
}

.new-look-state-node-sub .item-source.not-specified {
  font-style: italic;
}

.new-look-state-node-sub &gt; rect,
.new-look-state-node &gt; .bounding-box &gt; rect {
  stroke: var(--color-border-control-default-ie1oqq, #687078);
  fill: #ffffff;
}

.new-look-graph .drag-source {
  opacity: 0.2;
}

.new-look-graph .edge, .new-look-graph path.starting-connection {
  stroke-width: 1px;
  stroke: var(--color-text-form-secondary-btuye6, #687078);
  marker-end: url(#large-arrowhead);
}

.new-look-graph .edge-label {
  cursor: pointer;
}

.new-look-graph .edge-label rect {
  stroke-width: 1px;
  stroke: var(--color-border-control-default-ie1oqq, #687078);
  fill: #fafafa;
}

.new-look-graph .edge-label.selected rect {
  stroke: var(--color-border-status-info-fjyzd6, #0073bb);
  fill: var(--color-background-status-info-60ssq8, #f1faff);
  stroke-width: 0.6px;
}



.new-look-graph .edge-label .label {
  fill: var(--color-text-form-secondary-btuye6, #687078);
  font-family: Amazon Ember, Arial, Roboto, Arial, sans-serif;
}

/* centering the shape text */
@-moz-document url-prefix() {
  .new-look-graph .shape + text,
  .new-look-graph .edge-label text {
    transform: translateY(3.5px);
  }
}

.new-look-graph .edge path {
  marker-end: url(#large-arrowhead) !important;
}

.new-look-graph .edge.selected path{
  stroke: var(--color-border-status-info-fjyzd6, #0073bb);
  stroke-width: 1.1px;
}

.new-look-graph .edge.dragging-over path, .new-look-graph  g.dragging-over .starting-connection {
  stroke: #5C86FF;
  stroke-width: 2px;
}

.new-look-graph .edge.dragging-over path, .new-look-graph .dragging-over path.starting-connection {
  marker-end: url(#large-highlighted-arrowhead) !important;
}

.new-look-graph .edge.dragging-over .edge-label text {
  fill: #5C86FF;
}

#large-highlighted-arrowhead {
  fill: #5C86FF;
}

#large-highlighted-arrowhead path {
  stroke: none;
}

.new-look-graph .edge.drop-not-supported path, g.drop-not-supported .starting-connection {
  stroke: red;
}

.new-look-graph .edge.drop-not-supported .edge-label text {
  fill: red;
}

.new-look-graph .edge.drop-not-supported path {
  marker-end: url(#large-error-arrowhead) !important;
}

#large-error-arrowhead {
  fill: red;
}

.node-container * &gt; .icon  {
  &gt; rect {
    fill: #fafafa;
  }
  &gt; line {
    stroke: #d5dbdb;
  }
}


.node.Placeholder.dragging-over rect {
  stroke: var(--color-border-status-info-fjyzd6, #0073bb);
  fill: var(--color-background-status-info-60ssq8, #f1faff);
  stroke-width: 2px;
}

.node.Placeholder.dragging-over .label {
  fill: var(--color-text-status-info-f9d9f2, #0073bb);
}

g.Placeholder rect {
  stroke-dasharray: 5 4;
  stroke: var(--color-border-dropdown-item-hover-t6obhh, #879596);
  fill: #ffffff;
  stroke-width: 1px;
}

g.Placeholder .label {
  font-style: italic;
  fill: var(--color-text-input-placeholder-lhl4lu, #687078);
}

.node.Placeholder.drop-not-supported rect {
  stroke: red;
}

.node.Placeholder.drop-not-supported .label {
  fill: red;
}
</style><style>.line2 { font-size: 14px }</style></svg>
